<?xml version="1.0" encoding="UTF-8"?>
<svg width="1440px" height="904px" viewBox="0 0 1440 904" version="1.1" xmlns="http://www.w3.org/2000/svg" xmlns:xlink="http://www.w3.org/1999/xlink">
    <!-- Generator: Sketch 52.2 (67145) - http://www.bohemiancoding.com/sketch -->
    <title>Group 34</title>
    <desc>Created with Sketch.</desc>
    <defs>
        <linearGradient x1="50%" y1="0%" x2="50%" y2="82.3202186%" id="linearGradient-1">
            <stop stop-color="#FAACA8" offset="0%"></stop>
            <stop stop-color="#FFE4DF" offset="100%"></stop>
        </linearGradient>
        <polygon id="path-2" points="15.202601 0 46.4079398 0 54.4093087 270.232673 0 270.232673"></polygon>
        <path d="M18.3934857,81.0570892 L24.0217791,85.1530425 L24.0217791,90.0493086 L29.194807,90.0493086 L32.7976257,93.7380764 L27.841316,104.789115 L22.8661985,109.963253 L22.8661985,115.636038 L19.2367123,115.636038 L20.8035592,251.844059 L12.8021903,251.844059 L14.3690372,115.636038 L10.3862968,115.636038 L10.3862968,109.963253 L5.41117939,104.789115 L0.4548697,93.7380764 L4.05768835,90.0493086 L9.23071624,90.0493086 L9.23071624,85.1530425 L15.2173816,80.7962864 L15.8615372,47.970297 L12.8009264,47.970297 C11.9178176,47.970297 11.2019165,47.2543959 11.2019165,46.3712871 C11.2019165,45.4881783 11.9178176,44.7722772 12.8009264,44.7722772 L15.9242931,44.7722772 L16.8028747,0 L17.6814564,44.7722772 L20.8048231,44.7722772 C21.6879319,44.7722772 22.403833,45.4881783 22.403833,46.3712871 C22.403833,47.2543959 21.6879319,47.970297 20.8048231,47.970297 L17.7442123,47.970297 L18.3934857,81.0570892 Z" id="path-4"></path>
        <linearGradient x1="50%" y1="0%" x2="50%" y2="100%" id="linearGradient-6">
            <stop stop-color="#FAACA8" offset="0%"></stop>
            <stop stop-color="#FFE4DF" offset="100%"></stop>
        </linearGradient>
        <linearGradient x1="50%" y1="100%" x2="50%" y2="3.061617e-15%" id="linearGradient-7">
            <stop stop-color="#FFF9EF" offset="0%"></stop>
            <stop stop-color="#F5EDE1" offset="100%"></stop>
        </linearGradient>
        <linearGradient x1="50%" y1="76.2186736%" x2="50%" y2="3.061617e-15%" id="linearGradient-8">
            <stop stop-color="#FFF9EF" offset="0%"></stop>
            <stop stop-color="#F5EDE1" offset="100%"></stop>
        </linearGradient>
        <path d="M21.2627774,130.03301 C27.552469,148.585667 32.2290652,160.241331 35.2925658,165" id="path-9"></path>
        <path d="M8.33352462,0 L19.6925623,1.33226763e-15 C20.7971318,1.1293615e-15 21.6925623,0.8954305 21.6925623,2 C21.6925623,2.09504401 21.6857873,2.18996714 21.6722888,2.28404771 L15.4,46 L1.08357767e-13,46 L6.35379815,1.71595229 C6.49508895,0.73119824 7.33868613,-1.37156337e-15 8.33352462,-1.55431223e-15 Z" id="path-10"></path>
        <path d="M18.4,23.3591516 L0.767871282,39.3142299 C12.4557073,70.9682928 20.9706476,86.7167911 26.3126922,86.5597245 C51.7659731,85.8113484 80.5247782,32.1220537 85,29.8300743 C89.4752218,27.538095 106.207625,11.1720545 100.670849,3.15719791 C93.9931732,-6.50919019 80.1608988,9.1806881 79.4962266,9 C78.8315544,8.8193119 78.5819775,1.27634571 75.984527,4 C74.2528933,5.81576953 73.0664013,11.2872598 72.4250511,20.414471 C46.8800598,46.8613972 33.4050427,60.0848604 32,60.0848604 C30.5949573,60.0848604 26.0616239,47.8429575 18.4,23.3591516 Z" id="path-12"></path>
        <path d="M32,60.7235533 C31.0316507,68.7893709 29.364984,73.5148538 27,74.9000021" id="path-14"></path>
        <path d="M71.5484463,20.8645063 C72.2034962,43.730288 46.2452303,115.982512 46.2452303,122.317173 C46.2452303,126.209062 30.1652628,124.345351 19.9943908,113.310991 C19.1288026,112.371916 27.9240494,108.836898 29.0516785,107.592754 C30.1793076,106.348611 37.3857212,27.6576871 45.6297668,16.531192 C53.8738124,5.40469694 70.8933963,-2.0012755 71.5484463,20.8645063 Z" id="path-15"></path>
        <path d="M145.196406,220 C94.5271584,233.282232 67.5592835,246.3997 64.292781,259.352403 C59.3930271,278.781457 67.8826001,297.812394 68.2745318,296.22281 C68.5358196,295.163088 97.9054766,283.472539 156.383503,261.151164 L145.196406,220 Z" id="path-17"></path>
        <path d="M119,5.68434189e-13 C66.9686694,10.5520537 37.6275034,22.6900671 30.976502,36.4140403 C21.9803914,54.9770167 10.0981156,131.700824 4,153.096917 C3.33543061,155.428652 1.3938588,155.325197 0.927928842,156.180801 C-3.81339322,164.887463 25.8380607,163.73679 25.8380607,152.595119 C25.8380607,141.453449 61.4011307,67.48796 65.8568787,60.48796 C66.2826194,59.8191196 67.4262846,58.5280994 69.2691518,58.7978769 C88.0565115,61.5481603 158.50485,58.038982 163.319549,49.9469242 C166.86844,43.9823081 167.943484,29 166.544679,5 L119,5.68434189e-13 Z" id="path-18"></path>
        <path d="M8.33352462,0 L19.6925623,1.33226763e-15 C20.7971318,1.1293615e-15 21.6925623,0.8954305 21.6925623,2 C21.6925623,2.09504401 21.6857873,2.18996714 21.6722888,2.28404771 L15.4,46 L1.08357767e-13,46 L6.35379815,1.71595229 C6.49508895,0.73119824 7.33868613,-1.37156337e-15 8.33352462,-1.55431223e-15 Z" id="path-20"></path>
    </defs>
    <g id="Page-1" stroke="none" stroke-width="1" fill="none" fill-rule="evenodd">
        <g id="io-cn2">
            <g id="1" transform="translate(-187.000000, -26.000000)">
                <g id="Group-34">
                    <rect id="Rectangle" fill="#FFE4DF" fill-rule="nonzero" x="187" y="26" width="1441" height="622"></rect>
                    <circle id="Oval" fill="#FAF4E9" fill-rule="nonzero" cx="1525.5" cy="64.5" r="64.5"></circle>
                    <path d="M1381.92171,188 C1397.11961,188 1405.86897,197.302849 1408.16978,215.908548 C1414.93588,208.057858 1425.31167,204.132514 1439.29714,204.132514 C1460.27534,204.132514 1476.7214,221.369154 1491.25578,228.313415 C1505.79017,235.257677 1513.98311,236.872985 1530,232.638554 C1520.33436,254.232736 1478.28581,262.839709 1415.98842,265.710124 C1353.69103,268.58054 1303.47804,249.786952 1306.09808,224.700242 C1308.24615,204.132514 1325.25232,204.132514 1333.6615,204.132514 C1339.26762,204.132514 1345.46681,208.752605 1352.25907,217.992789 C1356.83626,197.997596 1366.7238,188 1381.92171,188 Z" id="Mask" fill="#FAF4E9"></path>
                    <path d="M195.162556,188 C205.204031,188 210.984856,194.082632 212.505031,206.247896 C216.975494,201.114754 223.830925,198.548182 233.071324,198.548182 C246.931923,198.548182 257.798065,209.818293 267.401142,214.358772 C277.004218,218.89925 282.417411,219.955413 293,217.186747 C286.613776,231.30602 258.831696,236.933656 217.670922,238.810466 C176.510148,240.687276 143.333706,228.399161 145.064801,211.996312 C146.484066,198.548182 157.720285,198.548182 163.276351,198.548182 C166.980395,198.548182 171.076288,201.569011 175.564032,207.61067 C178.58824,194.53689 185.121081,188 195.162556,188 Z" id="Mask-Copy-2" fill="#FAF4E9"></path>
                    <path d="M1114.16256,307 C1124.20403,307 1129.98486,313.082632 1131.50503,325.247896 C1135.97549,320.114754 1142.83093,317.548182 1152.07132,317.548182 C1165.93192,317.548182 1176.79806,328.818293 1186.40114,333.358772 C1196.00422,337.89925 1201.41741,338.955413 1212,336.186747 C1205.61378,350.30602 1177.8317,355.933656 1136.67092,357.810466 C1095.51015,359.687276 1062.33371,347.399161 1064.0648,330.996312 C1065.48407,317.548182 1076.72028,317.548182 1082.27635,317.548182 C1085.98039,317.548182 1090.07629,320.569011 1094.56403,326.61067 C1097.58824,313.53689 1104.12108,307 1114.16256,307 Z" id="Mask-Copy-3" fill="#FAF4E9" opacity="0.300000012"></path>
                    <g id="Group-28-Copy" opacity="0.5" transform="translate(236.000000, 300.000000)">
                        <g id="Group-2" opacity="0.400000006" transform="translate(0.000000, 65.547030)" fill="url(#linearGradient-1)" fill-rule="nonzero">
                            <rect id="Rectangle-Copy-49" x="30.4052019" y="0" width="37.6064339" height="205.472772"></rect>
                            <rect id="Rectangle-Copy-50" x="62.4106776" y="31.980198" width="37.6064339" height="205.472772"></rect>
                            <rect id="Rectangle" x="0" y="99.1386139" width="37.6064339" height="135.116337"></rect>
                        </g>
                        <path d="M1095.76894,180.519366 C1144.09763,148.677621 1181.32403,132.60549 1207.44813,132.302971 C1247.51003,131.839053 1308.02732,177.942683 1389,270.613861 L1074.79487,249.397583 L682.479124,258.621287 L715.455427,221.301685 C811.462772,146.87483 888.038375,110.566381 945.182235,112.376337 C985.497677,113.653275 1035.69325,136.367618 1095.76894,180.519366 Z" id="Combined-Shape" fill="url(#linearGradient-1)" fill-rule="nonzero" opacity="0.400000006"></path>
                        <g id="Group-7" opacity="0.400000006" transform="translate(556.000000, 65.000000)" fill="url(#linearGradient-1)" fill-rule="nonzero">
                            <rect id="Rectangle-Copy-2" x="38.4914442" y="0.547029703" width="37.6064339" height="167.096535"></rect>
                            <polygon id="Rectangle-Copy" points="16.0876112 29.3292079 51.2936345 29.3292079 51.2936345 234.80198 0.0848733744 234.80198 0.0848733744 66.3466856"></polygon>
                        </g>
                        <g id="Group-24" transform="translate(397.668036, 23.173267)" fill-rule="nonzero">
                            <rect id="Rectangle" fill="#F47470" x="20.0034223" y="121.524752" width="12.0020534" height="4.7970297"></rect>
                            <rect id="Rectangle-Copy-21" fill="#F47470" x="20.0034223" y="134.316832" width="12.0020534" height="4.7970297"></rect>
                            <rect id="Rectangle-Copy-23" fill="#F47470" x="20.0034223" y="147.108911" width="12.0020534" height="4.7970297"></rect>
                            <rect id="Rectangle-Copy-22" fill="#F47470" x="20.0034223" y="159.90099" width="12.0020534" height="4.7970297"></rect>
                            <rect id="Rectangle-Copy-25" fill="#F47470" x="20.0034223" y="172.693069" width="12.0020534" height="4.7970297"></rect>
                            <rect id="Rectangle" fill="#F47470" x="20.8035592" y="65.5594059" width="9.60164271" height="30.3811881"></rect>
                            <rect id="Rectangle-Copy-27" fill="#F47470" x="22.403833" y="221.462871" width="6.40109514" height="30.3811881"></rect>
                            <polygon id="Rectangle-Copy-28" fill="#F47470" transform="translate(39.177984, 232.219797) rotate(-30.000000) translate(-39.177984, -232.219797) " points="35.9728693 217.025106 42.3727006 217.027296 42.3830989 247.414487 35.9832676 247.412298"></polygon>
                            <polygon id="Rectangle-Copy-29" fill="#F47470" transform="translate(10.373056, 233.019302) rotate(-330.000000) translate(-10.373056, -233.019302) " points="7.17833949 217.826801 13.5781707 217.824611 13.5677725 248.211803 7.16794121 248.213992"></polygon>
                            <rect id="Rectangle-Copy-24" fill="#F47470" x="20.0034223" y="185.485149" width="12.0020534" height="4.7970297"></rect>
                            <polygon id="Rectangle-Copy-26" fill="#F47470" points="24.8042437 0 26.4045175 0 28.0047912 59.1633663 23.2039699 59.1633663"></polygon>
                            <rect id="Rectangle" fill="#F47470" x="17.6030116" y="107.933168" width="4.80082136" height="95.9405941"></rect>
                            <rect id="Rectangle-Copy-20" fill="#F47470" x="28.8049281" y="107.933168" width="4.80082136" height="95.9405941"></rect>
                            <ellipse id="Oval" fill="#F05049" cx="25.6043806" cy="59.9628713" rx="8.00136893" ry="7.9950495"></ellipse>
                            <ellipse id="Oval-Copy-4" fill="#F05049" cx="25.6043806" cy="102.336634" rx="13.6023272" ry="13.5915842"></ellipse>
                            <ellipse id="Oval-Copy-5" fill="#F05049" cx="25.6043806" cy="208.670792" rx="16.0027379" ry="15.990099"></ellipse>
                        </g>
                        <g id="Group-25" transform="translate(486.850787, 51.967822)" fill-rule="nonzero">
                            <rect id="Rectangle" fill="#F2928F" x="0" y="0" width="43.2073922" height="218.264851"></rect>
                            <rect id="Rectangle" fill="#F47470" x="21.6036961" y="0" width="21.6036961" height="218.264851"></rect>
                            <polygon id="Rectangle-Copy-30" fill="#FFAAA7" points="0 -4.26325641e-14 43.2073922 -4.26325641e-14 21.4497013 106.334158"></polygon>
                            <polygon id="Rectangle" fill="#FFC6C4" points="7.20123203 6.3960396 36.0061602 6.3960396 32.8056126 23.9851485 10.4017796 23.9851485"></polygon>
                        </g>
                        <g id="Rectangle-+-Rectangle-Copy-31-+-Rectangle-Copy-33-+-Rectangle-Copy-32-+-Rectangle-Copy-37-+-Rectangle-Copy-36-+-Rectangle-Copy-35-+-Rectangle-Copy-34-+-Rectangle-Copy-45-+-Rectangle-Copy-44-+-Rectangle-Copy-43-+-Rectangle-Copy-42-+-Rectangle-Copy-41-+-Rectangle-Copy-40-+-Rectangle-Copy-39-+-Rectangle-Copy-38-Mask" transform="translate(296.435318, 0.000000)">
                            <mask id="mask-3" fill="white">
                                <use xlink:href="#path-2"></use>
                            </mask>
                            <use id="Mask" fill="#F09895" fill-rule="nonzero" xlink:href="#path-2"></use>
                            <rect id="Rectangle" fill="#F47470" fill-rule="nonzero" mask="url(#mask-3)" x="-5.60095825" y="0" width="69.6119097" height="8.79455446"></rect>
                            <rect id="Rectangle-Copy-31" fill="#F47470" fill-rule="nonzero" mask="url(#mask-3)" x="-5.60095825" y="16.789604" width="69.6119097" height="8.79455446"></rect>
                            <rect id="Rectangle-Copy-33" fill="#F47470" fill-rule="nonzero" mask="url(#mask-3)" x="-5.60095825" y="33.5792079" width="69.6119097" height="8.79455446"></rect>
                            <rect id="Rectangle-Copy-32" fill="#F47470" fill-rule="nonzero" mask="url(#mask-3)" x="-5.60095825" y="50.3688119" width="69.6119097" height="8.79455446"></rect>
                            <rect id="Rectangle-Copy-37" fill="#F47470" fill-rule="nonzero" mask="url(#mask-3)" x="-5.60095825" y="67.1584158" width="69.6119097" height="8.79455446"></rect>
                            <rect id="Rectangle-Copy-36" fill="#F47470" fill-rule="nonzero" mask="url(#mask-3)" x="-5.60095825" y="83.9480198" width="69.6119097" height="8.79455446"></rect>
                            <rect id="Rectangle-Copy-35" fill="#F47470" fill-rule="nonzero" mask="url(#mask-3)" x="-5.60095825" y="100.737624" width="69.6119097" height="8.79455446"></rect>
                            <rect id="Rectangle-Copy-34" fill="#F47470" fill-rule="nonzero" mask="url(#mask-3)" x="-5.60095825" y="117.527228" width="69.6119097" height="8.79455446"></rect>
                            <rect id="Rectangle-Copy-45" fill="#F47470" fill-rule="nonzero" mask="url(#mask-3)" x="-5.60095825" y="134.316832" width="69.6119097" height="8.79455446"></rect>
                            <rect id="Rectangle-Copy-44" fill="#F47470" fill-rule="nonzero" mask="url(#mask-3)" x="-5.60095825" y="151.106436" width="69.6119097" height="8.79455446"></rect>
                            <rect id="Rectangle-Copy-43" fill="#F47470" fill-rule="nonzero" mask="url(#mask-3)" x="-5.60095825" y="167.89604" width="69.6119097" height="8.79455446"></rect>
                            <rect id="Rectangle-Copy-42" fill="#F47470" fill-rule="nonzero" mask="url(#mask-3)" x="-5.60095825" y="184.685644" width="69.6119097" height="8.79455446"></rect>
                            <rect id="Rectangle-Copy-41" fill="#F47470" fill-rule="nonzero" mask="url(#mask-3)" x="-5.60095825" y="201.475248" width="69.6119097" height="8.79455446"></rect>
                            <rect id="Rectangle-Copy-40" fill="#F47470" fill-rule="nonzero" mask="url(#mask-3)" x="-5.60095825" y="218.264851" width="69.6119097" height="8.79455446"></rect>
                            <rect id="Rectangle-Copy-39" fill="#F47470" fill-rule="nonzero" mask="url(#mask-3)" x="-5.60095825" y="235.054455" width="69.6119097" height="8.79455446"></rect>
                            <rect id="Rectangle-Copy-38" fill="#F47470" fill-rule="nonzero" mask="url(#mask-3)" x="-5.60095825" y="251.844059" width="69.6119097" height="8.79455446"></rect>
                            <path d="M15.9522672,-3.43280294 C19.4851571,52.5949863 23.2859311,88.5342769 27.354589,104.385069 C33.457576,128.161257 58.6416102,276.089546 58.6416102,303.929351 C58.6416102,322.48922 29.9459209,321.033458 -27.4454579,299.562063 L-14.2926672,0 L15.9522672,-3.43280294 Z" id="Path-71" fill="#F05049" fill-rule="nonzero" opacity="0.400000006" mask="url(#mask-3)"></path>
                        </g>
                        <g id="Group-21-Copy" transform="translate(161.617385, 40.762376)" fill-rule="nonzero">
                            <g id="Group-20-Copy-7" transform="translate(0.000000, 171.094059)">
                                <rect id="Rectangle" fill="#F2928F" x="18.4031485" y="24.7846535" width="44.807666" height="19.1881188"></rect>
                                <rect id="Rectangle" fill="#FFAAA7" x="20.8035592" y="27.9826733" width="40.0068446" height="12.7920792"></rect>
                                <path d="M41.6071184,22.036059 L81.613963,22.036059 C74.980671,23.3806606 71.664025,24.5633604 71.664025,25.5841584 C70.1108311,25.5841584 59.5584376,25.5841584 40.0068446,25.5841584 L40.0068446,22.036059 L41.6071184,22.036059 L41.6071184,25.5841584 C22.0555254,25.5841584 11.503132,25.5841584 9.94993805,25.5841584 C9.94993805,24.5633604 6.63329204,23.3806606 1.03028697e-13,22.036059 L41.6071184,22.036059 Z" id="Combined-Shape" fill="#F05049"></path>
                                <path d="M41.6071184,0.323947727 L42.4072553,0.323947727 L62.4592155,7.9950495 C64.3648568,12.65607 66.4631988,15.6385466 68.7542417,16.9424791 C71.2548956,18.3657104 75.5414694,19.0785207 81.613963,19.08091 L81.613963,22.036059 L41.6071184,22.036059 L-1.0658141e-14,22.036059 L-1.0658141e-14,19.08091 C3.20124301,19.4458963 7.41767378,18.733086 12.6492923,16.9424791 C14.9797866,16.1448293 16.8977387,13.1623528 18.4031485,7.9950495 L39.2067077,0.323947727 L41.6071184,0.323947727 Z" id="Combined-Shape" fill="#F47470"></path>
                            </g>
                            <g id="Group-20-Copy-6" transform="translate(0.000000, 135.915842)">
                                <rect id="Rectangle" fill="#F2928F" x="18.4031485" y="24.7846535" width="44.807666" height="19.1881188"></rect>
                                <rect id="Rectangle" fill="#FFAAA7" x="20.8035592" y="27.9826733" width="40.0068446" height="12.7920792"></rect>
                                <path d="M41.6071184,22.036059 L81.613963,22.036059 C74.980671,23.3806606 71.664025,24.5633604 71.664025,25.5841584 C70.1108311,25.5841584 59.5584376,25.5841584 40.0068446,25.5841584 L40.0068446,22.036059 L41.6071184,22.036059 L41.6071184,25.5841584 C22.0555254,25.5841584 11.503132,25.5841584 9.94993805,25.5841584 C9.94993805,24.5633604 6.63329204,23.3806606 1.03028697e-13,22.036059 L41.6071184,22.036059 Z" id="Combined-Shape" fill="#F05049"></path>
                                <path d="M41.6071184,0.323947727 L42.4072553,0.323947727 L62.4592155,7.9950495 C64.3648568,12.65607 66.4631988,15.6385466 68.7542417,16.9424791 C71.2548956,18.3657104 75.5414694,19.0785207 81.613963,19.08091 L81.613963,22.036059 L41.6071184,22.036059 L-1.0658141e-14,22.036059 L-1.0658141e-14,19.08091 C3.20124301,19.4458963 7.41767378,18.733086 12.6492923,16.9424791 C14.9797866,16.1448293 16.8977387,13.1623528 18.4031485,7.9950495 L39.2067077,0.323947727 L41.6071184,0.323947727 Z" id="Combined-Shape" fill="#F47470"></path>
                            </g>
                            <g id="Group-20-Copy-5" transform="translate(0.000000, 99.138614)">
                                <rect id="Rectangle" fill="#F2928F" x="18.4031485" y="24.7846535" width="44.807666" height="19.1881188"></rect>
                                <rect id="Rectangle" fill="#FFAAA7" x="20.8035592" y="27.9826733" width="40.0068446" height="12.7920792"></rect>
                                <path d="M41.6071184,22.036059 L81.613963,22.036059 C74.980671,23.3806606 71.664025,24.5633604 71.664025,25.5841584 C70.1108311,25.5841584 59.5584376,25.5841584 40.0068446,25.5841584 L40.0068446,22.036059 L41.6071184,22.036059 L41.6071184,25.5841584 C22.0555254,25.5841584 11.503132,25.5841584 9.94993805,25.5841584 C9.94993805,24.5633604 6.63329204,23.3806606 1.03028697e-13,22.036059 L41.6071184,22.036059 Z" id="Combined-Shape" fill="#F05049"></path>
                                <path d="M41.6071184,0.323947727 L42.4072553,0.323947727 L62.4592155,7.9950495 C64.3648568,12.65607 66.4631988,15.6385466 68.7542417,16.9424791 C71.2548956,18.3657104 75.5414694,19.0785207 81.613963,19.08091 L81.613963,22.036059 L41.6071184,22.036059 L-1.0658141e-14,22.036059 L-1.0658141e-14,19.08091 C3.20124301,19.4458963 7.41767378,18.733086 12.6492923,16.9424791 C14.9797866,16.1448293 16.8977387,13.1623528 18.4031485,7.9950495 L39.2067077,0.323947727 L41.6071184,0.323947727 Z" id="Combined-Shape" fill="#F47470"></path>
                            </g>
                            <g id="Group-20-Copy" transform="translate(0.000000, 63.960396)">
                                <rect id="Rectangle" fill="#F2928F" x="18.4031485" y="24.7846535" width="44.807666" height="19.1881188"></rect>
                                <rect id="Rectangle" fill="#FFAAA7" x="20.8035592" y="27.9826733" width="40.0068446" height="12.7920792"></rect>
                                <path d="M41.6071184,22.036059 L81.613963,22.036059 C74.980671,23.3806606 71.664025,24.5633604 71.664025,25.5841584 C70.1108311,25.5841584 59.5584376,25.5841584 40.0068446,25.5841584 L40.0068446,22.036059 L41.6071184,22.036059 L41.6071184,25.5841584 C22.0555254,25.5841584 11.503132,25.5841584 9.94993805,25.5841584 C9.94993805,24.5633604 6.63329204,23.3806606 1.03028697e-13,22.036059 L41.6071184,22.036059 Z" id="Combined-Shape" fill="#F05049"></path>
                                <path d="M41.6071184,0.323947727 L42.4072553,0.323947727 L62.4592155,7.9950495 C64.3648568,12.65607 66.4631988,15.6385466 68.7542417,16.9424791 C71.2548956,18.3657104 75.5414694,19.0785207 81.613963,19.08091 L81.613963,22.036059 L41.6071184,22.036059 L-1.0658141e-14,22.036059 L-1.0658141e-14,19.08091 C3.20124301,19.4458963 7.41767378,18.733086 12.6492923,16.9424791 C14.9797866,16.1448293 16.8977387,13.1623528 18.4031485,7.9950495 L39.2067077,0.323947727 L41.6071184,0.323947727 Z" id="Combined-Shape" fill="#F47470"></path>
                            </g>
                            <g id="Group-20" transform="translate(0.000000, 27.982673)">
                                <rect id="Rectangle" fill="#F2928F" x="18.4031485" y="24.7846535" width="44.807666" height="19.1881188"></rect>
                                <rect id="Rectangle" fill="#FFAAA7" x="20.8035592" y="27.9826733" width="40.0068446" height="12.7920792"></rect>
                                <path d="M41.6071184,22.036059 L81.613963,22.036059 C74.980671,23.3806606 71.664025,24.5633604 71.664025,25.5841584 C70.1108311,25.5841584 59.5584376,25.5841584 40.0068446,25.5841584 L40.0068446,22.036059 L41.6071184,22.036059 L41.6071184,25.5841584 C22.0555254,25.5841584 11.503132,25.5841584 9.94993805,25.5841584 C9.94993805,24.5633604 6.63329204,23.3806606 1.03028697e-13,22.036059 L41.6071184,22.036059 Z" id="Combined-Shape" fill="#F05049"></path>
                                <path d="M41.6071184,0.323947727 L42.4072553,0.323947727 C50.8680632,8.22038241 57.7142764,13.0639032 62.9458949,14.8545101 C68.1775135,16.6451171 74.4002028,18.053917 81.613963,19.08091 L81.613963,22.036059 L41.6071184,22.036059 L-1.0658141e-14,22.036059 L-1.0658141e-14,19.08091 C7.21376021,18.053917 13.4364496,16.6451171 18.6680681,14.8545101 C23.8996866,13.0639032 30.7458998,8.22038241 39.2067077,0.323947727 L41.6071184,0.323947727 Z" id="Combined-Shape" fill="#F47470"></path>
                            </g>
                            <rect id="Rectangle" fill="#F05049" x="39.2067077" y="0" width="3.20054757" height="25.5841584" rx="1.60027379"></rect>
                            <rect id="Rectangle" fill="#F47470" x="37.6064339" y="21.5866337" width="6.40109514" height="9.59405941"></rect>
                        </g>
                        <g id="Group-17-Copy" transform="translate(76.806297, 14.378713)">
                            <g id="Rectangle-+-Rectangle-Copy-47-Mask">
                                <mask id="mask-5" fill="white">
                                    <use xlink:href="#path-4"></use>
                                </mask>
                                <use id="Mask" fill="#F47470" fill-rule="nonzero" xlink:href="#path-4"></use>
                                <polygon id="Rectangle" fill="#F05049" fill-rule="nonzero" mask="url(#mask-5)" points="8.80150582 109.967116 24.9257649 109.967116 24.9257649 115.597271 8.80150582 115.693483"></polygon>
                                <polygon id="Rectangle-Copy-48" fill="#F05049" fill-rule="nonzero" mask="url(#mask-5)" points="8.80150582 85.1465256 25.0382151 85.1465256 24.8042437 90.0368581 8.80150582 90.0368581"></polygon>
                                <rect id="Rectangle-Copy-47" fill="#F05049" fill-rule="nonzero" mask="url(#mask-5)" x="-1.60027379" y="93.5420792" width="37.6064339" height="11.1930693"></rect>
                            </g>
                        </g>
                        <g id="Group-22" transform="translate(543.464066, 130.299505)" fill-rule="nonzero">
                            <g id="Group-19-Copy" transform="translate(195.233402, 0.000000)">
                                <g id="Group-18-Copy" transform="translate(114.419576, 77.951733) scale(-1, 1) translate(-114.419576, -77.951733) ">
                                    <path d="M212.836413,0.0745940156 L160.420886,0.0745940156 C156.103906,5.58524593 150.443111,9.12931744 143.4385,10.7068085 C136.433889,12.2842996 128.777387,13.1111616 120.468995,13.1873944 L120.468995,15.4121097 L212.836413,15.4121097 L212.836413,0.0745940156 Z" id="Path-64" fill="#F47470"></path>
                                    <polygon id="Path-65" fill="#F05049" points="122.37858 15.4121097 139.766377 23.313759 212.836413 23.313759 212.836413 15.4121097"></polygon>
                                    <rect id="Rectangle" fill="#F2928F" x="137.623546" y="17.5891089" width="75.2128679" height="3.1980198"></rect>
                                    <rect id="Rectangle" fill="#F05049" x="139.223819" y="20.7871287" width="73.6125941" height="10.3935644"></rect>
                                    <rect id="Rectangle" fill="#F2928F" x="139.223819" y="20.7871287" width="3.20054757" height="10.3935644"></rect>
                                    <rect id="Rectangle-Copy-3" fill="#F2928F" x="168.028747" y="20.7871287" width="3.20054757" height="10.3935644"></rect>
                                    <rect id="Rectangle-Copy-4" fill="#F2928F" x="196.833676" y="20.7871287" width="3.20054757" height="10.3935644"></rect>
                                    <path d="M212.836413,31.1806931 L139.223819,31.1806931 C137.150227,33.9085918 133.251137,35.7448254 127.526549,36.689394 C121.801961,37.6339626 112.296112,38.2016172 99.0090023,38.3923577 L99.0090023,40.2685998 L212.836413,40.2685998 L212.836413,31.1806931 Z" id="Path-66" fill="#F47470"></path>
                                    <polygon id="Path-67" fill="#F05049" points="212.836413 40.2685998 99.0090023 40.2685998 120.732738 50.3688119 212.836413 50.3688119"></polygon>
                                    <rect id="Rectangle" fill="#F2928F" x="124.821355" y="50.3688119" width="3.20054757" height="25.5841584"></rect>
                                    <rect id="Rectangle-Copy-5" fill="#F2928F" x="137.623546" y="50.3688119" width="3.20054757" height="25.5841584"></rect>
                                    <rect id="Rectangle-Copy-6" fill="#F2928F" x="168.028747" y="50.3688119" width="3.20054757" height="25.5841584"></rect>
                                    <rect id="Rectangle-Copy-10" fill="#F2928F" x="196.833676" y="50.3688119" width="3.20054757" height="25.5841584"></rect>
                                    <rect id="Rectangle" fill="#F05049" x="140.824093" y="50.3688119" width="27.2046543" height="25.5841584"></rect>
                                    <rect id="Rectangle" fill="#E34840" x="144.824778" y="55.1658416" width="19.2032854" height="11.1930693"></rect>
                                    <rect id="Rectangle-Copy-12" fill="#F05049" x="171.229295" y="50.3688119" width="27.2046543" height="25.5841584"></rect>
                                    <rect id="Rectangle-Copy-11" fill="#E34840" x="173.629706" y="55.1658416" width="19.2032854" height="11.1930693"></rect>
                                    <rect id="Rectangle-Copy-14" fill="#F05049" x="200.034223" y="50.3688119" width="27.2046543" height="25.5841584"></rect>
                                    <rect id="Rectangle" fill="#E34840" x="96.816564" y="75.9529703" width="116.819986" height="11.1930693"></rect>
                                    <rect id="Rectangle" fill="#F05049" x="96.816564" y="87.1460396" width="116.019849" height="68.7574257"></rect>
                                    <rect id="Rectangle" fill="#E34840" x="120.020534" y="115.128713" width="19.2032854" height="25.5841584" rx="9.60164271"></rect>
                                    <rect id="Rectangle-Copy-15" fill="#E34840" x="157.626968" y="110.331683" width="19.2032854" height="35.1782178" rx="9.60164271"></rect>
                                    <rect id="Rectangle-Copy-16" fill="#E34840" x="194.433265" y="102.336634" width="34.4058864" height="40.7747525" rx="17.2"></rect>
                                    <rect id="Rectangle" fill="#E34840" x="0" y="99.1386139" width="96.816564" height="11.1930693"></rect>
                                    <rect id="Rectangle" fill="#F05049" x="0" y="110.331683" width="96.816564" height="35.1782178"></rect>
                                    <rect id="Rectangle-Copy-13" fill="#E34840" x="204.034908" y="55.1658416" width="19.2032854" height="11.1930693"></rect>
                                </g>
                            </g>
                            <g id="Group-18-Copy">
                                <path d="M212.836413,0.0745940156 L160.420886,0.0745940156 C156.103906,5.58524593 150.443111,9.12931744 143.4385,10.7068085 C136.433889,12.2842996 128.777387,13.1111616 120.468995,13.1873944 L120.468995,15.4121097 L212.836413,15.4121097 L212.836413,0.0745940156 Z" id="Path-64" fill="#F47470"></path>
                                <polygon id="Path-65" fill="#F05049" points="122.37858 15.4121097 139.766377 23.313759 212.836413 23.313759 212.836413 15.4121097"></polygon>
                                <rect id="Rectangle" fill="#F2928F" x="137.623546" y="17.5891089" width="75.2128679" height="3.1980198"></rect>
                                <rect id="Rectangle" fill="#F05049" x="139.223819" y="20.7871287" width="73.6125941" height="10.3935644"></rect>
                                <rect id="Rectangle" fill="#F2928F" x="139.223819" y="20.7871287" width="3.20054757" height="10.3935644"></rect>
                                <rect id="Rectangle-Copy-3" fill="#F2928F" x="168.028747" y="20.7871287" width="3.20054757" height="10.3935644"></rect>
                                <rect id="Rectangle-Copy-4" fill="#F2928F" x="196.833676" y="20.7871287" width="3.20054757" height="10.3935644"></rect>
                                <path d="M212.836413,31.1806931 L139.223819,31.1806931 C137.150227,33.9085918 133.251137,35.7448254 127.526549,36.689394 C121.801961,37.6339626 112.296112,38.2016172 99.0090023,38.3923577 L99.0090023,40.2685998 L212.836413,40.2685998 L212.836413,31.1806931 Z" id="Path-66" fill="#F47470"></path>
                                <polygon id="Path-67" fill="#F05049" points="212.836413 40.2685998 99.0090023 40.2685998 120.732738 50.3688119 212.836413 50.3688119"></polygon>
                                <rect id="Rectangle" fill="#F2928F" x="124.821355" y="50.3688119" width="3.20054757" height="25.5841584"></rect>
                                <rect id="Rectangle-Copy-5" fill="#F2928F" x="137.623546" y="50.3688119" width="3.20054757" height="25.5841584"></rect>
                                <rect id="Rectangle-Copy-6" fill="#F2928F" x="168.028747" y="50.3688119" width="3.20054757" height="25.5841584"></rect>
                                <rect id="Rectangle" fill="#F05049" x="140.824093" y="50.3688119" width="27.2046543" height="25.5841584"></rect>
                                <rect id="Rectangle" fill="#E34840" x="144.824778" y="55.1658416" width="19.2032854" height="11.1930693"></rect>
                                <rect id="Rectangle-Copy-12" fill="#F05049" x="171.229295" y="50.3688119" width="27.2046543" height="25.5841584"></rect>
                                <rect id="Rectangle-Copy-11" fill="#E34840" x="175.229979" y="55.1658416" width="19.2032854" height="11.1930693"></rect>
                                <rect id="Rectangle-Copy-10" fill="#F2928F" x="196.833676" y="50.3688119" width="3.20054757" height="25.5841584"></rect>
                                <rect id="Rectangle-Copy-14" fill="#F05049" x="200.034223" y="50.3688119" width="27.2046543" height="25.5841584"></rect>
                                <rect id="Rectangle" fill="#E34840" x="96.816564" y="75.9529703" width="116.819986" height="11.1930693"></rect>
                                <rect id="Rectangle" fill="#F05049" x="96.816564" y="87.1460396" width="116.019849" height="68.7574257"></rect>
                                <rect id="Rectangle" fill="#E34840" x="120.020534" y="115.128713" width="19.2032854" height="25.5841584" rx="9.60164271"></rect>
                                <rect id="Rectangle-Copy-15" fill="#E34840" x="157.626968" y="110.331683" width="19.2032854" height="35.1782178" rx="9.60164271"></rect>
                                <rect id="Rectangle-Copy-16" fill="#E34840" x="194.433265" y="102.336634" width="34.4058864" height="40.7747525" rx="17.2"></rect>
                                <rect id="Rectangle" fill="#E34840" x="0" y="99.1386139" width="96.816564" height="11.1930693"></rect>
                                <rect id="Rectangle" fill="#F05049" x="0" y="110.331683" width="96.816564" height="35.1782178"></rect>
                                <rect id="Rectangle-Copy-13" fill="#E34840" x="203.234771" y="55.1658416" width="19.2032854" height="11.1930693"></rect>
                            </g>
                            <rect id="Rectangle-Copy-10" fill="#F2928F" x="224.838467" y="50.3688119" width="3.20054757" height="25.5841584"></rect>
                        </g>
                        <path d="M1159.88635,261.709595 L1145.17677,261.709595 L1145.17677,246.728983 L1139.66481,246.728983 C1137.18826,245.239118 1135.21876,243.729461 1133.75633,242.200009 C1142.03736,240.93015 1143.35926,238.862576 1145.17677,235.325931 L1145.17677,220.345319 L1139.66481,220.345319 C1137.18826,218.855455 1135.21876,217.345797 1133.75633,215.816346 C1155.31427,212.510531 1159.89351,199.457921 1159.89351,199.457921 L1159.89351,199.576399 C1160.10187,200.141331 1164.9525,212.683962 1186.02353,215.915112 C1184.5611,217.444563 1182.5916,218.954221 1180.11505,220.444085 L1174.60309,220.444085 L1174.60309,235.424697 C1176.4206,238.961342 1177.7425,241.028915 1186.02353,242.298775 C1184.5611,243.828226 1182.5916,245.337884 1180.11505,246.827748 L1174.60309,246.827748 L1174.60309,261.80836 L1159.88635,261.80836 L1159.88635,261.709595 Z" id="Combined-Shape" fill="url(#linearGradient-6)" fill-rule="nonzero"></path>
                        <path d="M1233.2316,245.829208 L1216.56225,245.829208 L1216.56225,228.898218 L1210.31896,228.898218 C1207.51381,227.214383 1205.28301,225.508178 1203.62654,223.779602 C1213.0063,222.344415 1214.50359,220.007657 1216.56225,216.010564 L1216.56225,199.079574 L1210.31896,199.079574 C1207.51381,197.395739 1205.28301,195.689534 1203.62654,193.960958 C1222.9642,191.002124 1230.24066,181.134642 1232.43147,177.156567 L1232.43147,175.472772 C1232.43147,175.472772 1232.54888,175.806707 1232.83154,176.386817 C1233.11419,175.806707 1233.2316,175.472772 1233.2316,175.472772 L1233.2316,177.156567 C1235.42241,181.134642 1242.69888,191.002124 1262.03653,193.960958 C1260.38007,195.689534 1258.14926,197.395739 1255.34411,199.079574 L1249.10082,199.079574 L1249.10082,216.010564 C1251.15949,220.007657 1252.65677,222.344415 1262.03653,223.779602 C1260.38007,225.508178 1258.14926,227.214383 1255.34411,228.898218 L1249.10082,228.898218 L1249.10082,245.829208 L1233.2316,245.829208 Z" id="Combined-Shape-Copy" fill="url(#linearGradient-6)" fill-rule="nonzero"></path>
                        <g id="Group-27" transform="translate(999.333333, 199.064356)" fill-rule="nonzero">
                            <g id="Group-26">
                                <path d="M15.202601,0.369665859 C15.6438196,9.08662439 10.7968953,15.8338672 0.661827958,20.6113943 C0.661827958,21.2796625 0.661827958,21.9093231 0.661827958,22.500376 L56.7129687,22.3861386 L56.7129687,0.369665859 L15.202601,0.369665859 Z" id="Path-72" fill="#F47470"></path>
                                <rect id="Rectangle" fill="#F05049" x="13.6023272" y="27.1831683" width="43.2073922" height="33.5792079"></rect>
                                <path d="M15.9226944,40.7747525 C14.8224724,44.5051335 10.8518541,47.2179344 4.01083938,48.9131552 C4.01083938,49.2270037 4.01083938,49.9800987 4.01083938,51.1724403 L56.8097194,51.1724403 L56.8097194,40.7747525 L15.9226944,40.7747525 Z" id="Path-72-Copy" fill="#F47470"></path>
                                <path d="M0.661827958,22.500376 C7.15512905,24.3946379 11.4686288,25.9593988 13.6023272,27.1946587 C16.2694501,27.1946587 30.639664,27.1946587 56.7129687,27.1946587 L56.8097194,22.500376 L0.661827958,22.500376 Z" id="Path-73" fill="#F05049"></path>
                                <rect id="Rectangle" fill="#F47470" x="48.8083504" y="51.9678218" width="16.0027379" height="28.7821782"></rect>
                                <rect id="Rectangle-Copy-46" fill="#F47470" x="13.6023272" y="51.9678218" width="16.0027379" height="28.7821782"></rect>
                                <rect id="Rectangle" fill="#FFAAA7" x="17.6030116" y="27.1831683" width="39.2067077" height="10.3935644"></rect>
                                <rect id="Rectangle" fill="#F47470" x="13.6023272" y="51.1683168" width="43.2073922" height="9.59405941"></rect>
                                <path d="M4.01083938,51.1724403 C9.33831538,52.3523484 12.535478,53.4282829 13.6023272,54.4002439 C14.8862394,54.4002439 29.2887034,54.4002439 56.8097194,54.4002439 L56.8097194,51.1724403 L4.01083938,51.1724403 Z" id="Path-74" fill="#E34840"></path>
                            </g>
                            <g id="Group-26-Copy" transform="translate(84.414442, 40.375000) scale(-1, 1) translate(-84.414442, -40.375000) translate(56.009582, 0.000000)">
                                <path d="M15.202601,0.369665859 C15.6438196,9.08662439 10.7968953,15.8338672 0.661827958,20.6113943 C0.661827958,21.2796625 0.661827958,21.9093231 0.661827958,22.500376 L56.7129687,22.3861386 L56.7129687,0.369665859 L15.202601,0.369665859 Z" id="Path-72" fill="#F47470"></path>
                                <rect id="Rectangle" fill="#F05049" x="13.6023272" y="27.1831683" width="43.2073922" height="33.5792079"></rect>
                                <path d="M15.9226944,40.7747525 C14.8224724,44.5051335 10.8518541,47.2179344 4.01083938,48.9131552 C4.01083938,49.2270037 4.01083938,49.9800987 4.01083938,51.1724403 L56.8097194,51.1724403 L56.8097194,40.7747525 L15.9226944,40.7747525 Z" id="Path-72-Copy" fill="#F47470"></path>
                                <path d="M0.661827958,22.500376 C7.15512905,24.3946379 11.4686288,25.9593988 13.6023272,27.1946587 C16.2694501,27.1946587 30.639664,27.1946587 56.7129687,27.1946587 L56.8097194,22.500376 L0.661827958,22.500376 Z" id="Path-73" fill="#F05049"></path>
                                <rect id="Rectangle-Copy-46" fill="#F47470" x="13.6023272" y="51.9678218" width="16.0027379" height="28.7821782"></rect>
                                <rect id="Rectangle" fill="#FFAAA7" x="17.6030116" y="27.1831683" width="39.2067077" height="10.3935644"></rect>
                                <rect id="Rectangle" fill="#F47470" x="13.6023272" y="51.1683168" width="43.2073922" height="9.59405941"></rect>
                                <path d="M4.01083938,51.1724403 C9.33831538,52.3523484 12.535478,53.4282829 13.6023272,54.4002439 C14.8862394,54.4002439 29.2887034,54.4002439 56.8097194,54.4002439 L56.8097194,51.1724403 L4.01083938,51.1724403 Z" id="Path-74" fill="#E34840"></path>
                            </g>
                        </g>
                    </g>
                    <g id="bg" transform="translate(0.000000, 519.000000)" fill-rule="nonzero">
                        <path d="M1.13686838e-13,101.97364 C210.67502,55.3245466 374.592236,32 491.751647,32 C608.911059,32 747.372917,55.3245466 907.137223,101.97364 L1.13686838e-13,101.97364 Z" id="Path-62" fill="url(#linearGradient-7)"></path>
                        <path d="M282,101.97364 C492.67502,33.9912133 656.592236,5.87303102e-14 773.751647,5.68434189e-14 C890.911059,5.68434189e-14 1029.37292,33.9912133 1189.13722,101.97364 L282,101.97364 Z" id="Path-62-Copy" fill="url(#linearGradient-7)"></path>
                        <path d="M630,132.97364 C840.67502,64.9912133 1004.59224,31 1121.75165,31 C1238.91106,31 1377.37292,64.9912133 1537.13722,132.97364 L630,132.97364 Z" id="Path-62-Copy-2" fill="url(#linearGradient-8)"></path>
                        <path d="M1206,101.97364 C1416.67502,33.9912133 1580.59224,5.87303102e-14 1697.75165,5.68434189e-14 C1814.91106,5.68434189e-14 1953.37292,33.9912133 2113.13722,101.97364 L1206,101.97364 Z" id="Path-62-Copy-3" fill="url(#linearGradient-7)"></path>
                        <rect id="Rectangle" fill="#FFF9EF" x="187" y="102" width="1440" height="309"></rect>
                    </g>
                    <ellipse id="Oval" fill="#000000" fill-rule="nonzero" opacity="0.100000001" cx="875" cy="884" rx="303" ry="40"></ellipse>
                    <g id="人物们" transform="translate(612.000000, 497.000000)">
                        <g id="Group-16" transform="translate(217.000000, 254.000000)" fill-rule="nonzero">
                            <rect id="Rectangle" fill="#BB8670" x="60" y="5" width="16" height="113" rx="8"></rect>
                            <path d="M0,140.942382 L0,68 C0,30.444637 30.444637,0 68,0 C105.555363,0 136,30.444637 136,68 L136,141.497337" id="Path" stroke="#AA6A51" stroke-width="16" stroke-linecap="round" stroke-linejoin="round"></path>
                        </g>
                        <g id="Group-6" transform="translate(143.000000, 318.500000) scale(-1, 1) translate(-143.000000, -318.500000) translate(113.000000, 269.000000)" fill-rule="nonzero">
                            <rect id="Rectangle-Copy-19" fill="#8D635B" transform="translate(27.697189, 49.378543) rotate(26.000000) translate(-27.697189, -49.378543) " x="22.6971886" y="-3.12145684" width="10" height="105" rx="5"></rect>
                            <path d="M14.205644,14.4167614 C16.5535879,22.9814477 27.4376811,25.1226193 46.8579237,20.8402762 C75.9882876,14.4167614 44.5875551,6 42.5550838,6 C41.200103,6 31.7502897,8.80558713 14.205644,14.4167614 Z" id="Path-70-Copy" fill="#C9885D"></path>
                        </g>
                        <path d="M18.7083501,198.660237 C18.7083501,198.213762 45.1565745,117.774871 108.226066,124.386287 C150.272394,128.793898 159.565623,168.095091 136.105751,242.289866 C126.152853,259.031629 114.089013,270.785257 99.9142295,277.55075 C85.7394463,284.316243 63.7131615,288.465993 33.8353751,290 L33.8353751,229.067035 L79.0035104,225.761327 L61.4167002,186.57248 C32.9444668,194.928634 18.7083501,198.957887 18.7083501,198.660237 Z" id="Path-45-Copy" fill="#CC8A5E" fill-rule="nonzero" transform="translate(83.708350, 207.000000) scale(-1, 1) translate(-83.708350, -207.000000) "></path>
                        <g id="Group-15" transform="translate(90.000000, 7.000000)">
                            <polygon id="Path-61" fill="#F0CBB3" points="93.2666609 269 59 377.881835 73.2210289 380 127.606094 256.742631"></polygon>
                            <path d="M73.2667586,380.413929 C67.7746411,380.413929 58.079999,372.666594 55.1443327,378.097839 C52.2086664,383.529085 70.3425562,393.04768 81.5670074,397.392515 C85.8461829,398.69161 86.5925357,388.890159 86.5925357,387.645053 C86.5925357,386.399946 78.7588761,380.413929 73.2667586,380.413929 Z" id="Path-35" fill="#373558" fill-rule="nonzero" transform="translate(70.709955, 386.838553) scale(-1, 1) rotate(-47.000000) translate(-70.709955, -386.838553) "></path>
                            <path d="M119.606094,239.234699 C134.482894,240.702432 143.280863,244.655278 146,251.093238 C150.035298,260.647405 132.818053,305.593431 94.3482661,385.931315 L80.0050597,380.658044 C86.3063538,348.814169 91.8922429,324.264913 96.7627267,307.010278 C101.633211,289.755643 106.56945,277.028212 111.571446,268.827987 L107.092214,268.827987 L111.571446,239.234699 L119.606094,239.234699 Z" id="Path-60" fill="#FDD6BD"></path>
                            <rect id="Rectangle-Copy-18" fill="#81534A" fill-rule="nonzero" transform="translate(56.146658, 336.031351) scale(-1, 1) rotate(20.000000) translate(-56.146658, -336.031351) " x="51.1466582" y="275.031351" width="10" height="122" rx="5"></rect>
                            <path d="M96.3171788,382.577088 C90.2657659,382.577088 79.5838599,374.228875 76.349237,380.081364 C73.1146141,385.933852 93.0951872,396.190703 105.462692,400.872519 C110.177642,402.272371 111,391.710728 111,390.369051 C111,389.027375 102.368592,382.577088 96.3171788,382.577088 Z" id="Path-35" fill="#2D2B50" fill-rule="nonzero" transform="translate(93.500000, 389.500000) scale(-1, 1) rotate(-47.000000) translate(-93.500000, -389.500000) "></path>
                            <path d="M55.0769502,157 C55.0769502,157 57.8041447,154.953269 63.2585338,150.859806 C68.1778248,162.953269 70.6374703,169 70.6374703,169 C70.6374703,169 78.3688985,159.519908 93.831755,140.559725 C104.451059,128.856317 110.935137,124.003075 113.283988,126 C115.632838,127.996925 115.010218,128.681331 111.416128,128.053218 C118.335471,124.910181 123.049176,124.454387 125.557243,126.685836 C128.06531,128.917285 124.906015,134.319072 116.079359,142.891195 L65.2210289,189.507509 C58.4583098,167.835836 55.0769502,157 55.0769502,157 Z" id="Path-56" fill="#F0CBB3"></path>
                            <path d="M65.2210289,6.87008706 C69.4447353,8.59704378 72.6285046,11.1833308 74.7723368,14.6289482 C77.9880851,19.7973743 80.53704,25.5136366 82.256392,27.5024604 C83.975744,29.4912843 91,37.5672674 91.8879185,45 C92.775837,52.4327326 87.95369,61.5705512 83.8875987,63.7852756 C79.8215075,66 70.3987599,68.8019463 67.8098944,73.3989586 C66.0839841,76.4636335 63.3379985,83.6639806 59.5719376,95 L42,86.7268537 L30.7110895,30.9596814 L65.2210289,6.87008706 Z" id="Path-52" fill="#FDD6BD"></path>
                            <path d="M38.986861,81.5632645 C42.6,80.3201449 69.0849166,96.3823003 69.0849166,98.9894688 C69.0849166,100.727581 68.3817544,101.577362 66.9754301,101.53881 C75.7962729,126.566249 79.0082545,142.928145 76.6113748,150.624497 C74.2144951,158.32085 69.2889634,164.779351 61.8347797,170 L66.9754301,221.952579 L119.606094,233 C113.925133,256.462625 110.099934,269.193455 108.130497,271.192489 C105.176341,274.19104 21.4871249,285.642347 6.24351523,271.192489 C-9.00009446,256.742631 12.2087637,119.195111 21.4599266,104.333244 C30.7110895,89.4713773 35.3737221,82.8063842 38.986861,81.5632645 Z" id="Path-53" fill="#FFBD5A" fill-rule="nonzero"></path>
                            <ellipse id="Oval" fill="#E49A69" fill-rule="nonzero" cx="194" cy="205.5" rx="112" ry="57.5"></ellipse>
                            <path d="M70.6374703,169 C70.6374703,169 78.3688985,159.519908 93.831755,140.559725 C105.88365,128.376656 112.598705,122.814793 113.976922,123.874136 C115.355139,124.933479 114.501541,126.326507 111.416128,128.053218 C118.335471,124.910181 123.049176,124.454387 125.557243,126.685836 C128.06531,128.917285 124.906015,134.319072 116.079359,142.891195 L65.2210289,189.507509 C68.8319898,175.835836 70.6374703,169 70.6374703,169 Z" id="Path-56" fill="#F0CBB3"></path>
                            <path d="M64.4271044,3 C68.209366,5.13405117 58.0918366,16.5058844 58.0918366,20.871175 C58.0918366,25.2364655 57.5699493,34.3229857 55.4849746,36.6209194 C53.4,38.9188531 40.1079589,37.7902572 40.1079589,45 C40.1079589,52.2097428 55.790545,50.5291202 58.0918366,57.1571979 C59.626031,61.5759164 58.0620855,65.8406878 53.4,69.9515123 C56.5278911,68.5157637 58.0918366,68.5157637 58.0918366,69.9515123 C58.0918366,72.105135 54.1317346,81.5632645 44.3624382,81.5632645 C34.5931418,81.5632645 13.4046931,76.3226 13.4046931,45 C13.4046931,13.6774 46.7037169,-7 64.4271044,3 Z" id="Path-51" fill="#4B2A19" fill-rule="nonzero"></path>
                            <g id="Path-54" stroke-linecap="round" stroke-linejoin="round" fill-rule="nonzero">
                                <use stroke="#FFBD5A" xlink:href="#path-9"></use>
                                <use stroke-opacity="0.05" stroke="#000000" xlink:href="#path-9"></use>
                            </g>
                            <g id="phone" transform="translate(119.500000, 127.000000) rotate(3.000000) translate(-119.500000, -127.000000) translate(108.000000, 104.000000)">
                                <g id="Rectangle">
                                    <mask id="mask-11" fill="white">
                                        <use xlink:href="#path-10"></use>
                                    </mask>
                                    <use id="Mask" fill="#5A5A5A" fill-rule="nonzero" xlink:href="#path-10"></use>
                                    <polygon fill="#333333" fill-rule="nonzero" mask="url(#mask-11)" points="-1 0 7.23734809 0 0.329175796 46.3887294 -1 44"></polygon>
                                    <rect fill="#333333" fill-rule="nonzero" mask="url(#mask-11)" x="6" y="0" width="17" height="2"></rect>
                                </g>
                                <path d="M20.1259477,-2.27373675e-13 L20.1259477,-2.27373675e-13 C21.1686284,-2.27565213e-13 22.0138881,0.845259715 22.0138881,1.88794041 C22.0138881,1.97769255 22.0074879,2.06733045 21.9947363,2.15617211 L15.795661,45.345553 L13.9013432,45.345553 L20.1259477,-2.27373675e-13 Z" id="Rectangle-Copy-51" fill="#333333" fill-rule="nonzero"></path>
                            </g>
                            <g id="Path-2" transform="translate(35.000000, 126.000000)">
                                <mask id="mask-13" fill="white">
                                    <use xlink:href="#path-12"></use>
                                </mask>
                                <use id="Mask" fill="#FDD6BD" xlink:href="#path-12"></use>
                                <path d="M25.9332626,19.3989586 C15.9414409,37.8662619 7.62127502,49.2640713 0.972765012,53.5923869 C-5.675745,57.9207026 -7.24583488,49.0565736 -3.73750464,27 L25.9332626,19.3989586 Z" fill="#000000" fill-rule="nonzero" opacity="0.0299999993" mask="url(#mask-13)"></path>
                                <g id="Path-3" stroke-linecap="round" stroke-linejoin="round" fill-rule="nonzero" mask="url(#mask-13)">
                                    <use stroke="#FDD6BD" xlink:href="#path-14"></use>
                                    <use stroke-opacity="0.05" stroke="#000000" xlink:href="#path-14"></use>
                                </g>
                            </g>
                            <g id="Group-4" transform="translate(46.000000, 100.000000)" fill-rule="nonzero" stroke="#B26C48" stroke-linecap="round" stroke-linejoin="round">
                                <path d="M8.4,0.505716005 C2.8,6.01143201 2.30834111,12.053253 2.30834111,13.9204536" id="Path-57"></path>
                                <path d="M3.34631071,0.505716005 C6.7154369,2.59993068 8.4,4.30127837 8.4,5.60975905" id="Path-58"></path>
                                <path d="M0.467386693,7.57248009 C3.79081158,8.87526202 5.45252402,10.2589531 5.45252402,11.7235533" id="Path-59"></path>
                            </g>
                            <path d="M110.957805,268.915005 C117.801368,268.396198 123.148766,266.165553 127,262.223069" id="Path-4" stroke="#000000" opacity="0.049999997" stroke-linecap="round" stroke-linejoin="round" fill-rule="nonzero"></path>
                        </g>
                        <path d="M442,198.660237 C442,198.213762 468.448224,117.774871 531.517716,124.386287 C573.564044,128.793898 582.857273,168.095091 559.397401,242.289866 C549.444503,259.031629 537.380663,270.785257 523.205879,277.55075 C509.031096,284.316243 487.004811,288.465993 457.127025,290 L457.127025,229.067035 L502.29516,225.761327 L497.961372,188.276075 C460.653791,195.496499 442,198.957887 442,198.660237 Z" id="Path-45" fill="#CC8A5E" fill-rule="nonzero"></path>
                        <rect id="Rectangle" fill="#8D635B" fill-rule="nonzero" transform="translate(434.018948, 320.607477) rotate(26.000000) translate(-434.018948, -320.607477) " x="429.018948" y="268.107477" width="10" height="105" rx="5"></rect>
                        <path d="M429.234447,286.198219 C431.582391,294.762905 442.466484,296.904077 461.886727,292.621733 C491.017091,286.198219 459.616358,277.781457 457.583887,277.781457 C456.228906,277.781457 446.779093,280.587044 429.234447,286.198219 Z" id="Path-70" fill="#C9885D" fill-rule="nonzero"></path>
                        <g id="Group-5" transform="translate(69.500000, 276.500000) scale(-1, 1) translate(-69.500000, -276.500000) translate(0.000000, 152.000000)" fill-rule="nonzero">
                            <rect id="Rectangle-Copy-17" fill="#81534A" transform="translate(109.273543, 180.428277) scale(-1, 1) rotate(20.000000) translate(-109.273543, -180.428277) " x="104.273543" y="109.428277" width="10" height="142" rx="5"></rect>
                            <rect id="Rectangle-Copy-9" fill="#8D635B" transform="translate(81.142286, 162.367945) scale(-1, 1) rotate(14.000000) translate(-81.142286, -162.367945) " x="76.1422861" y="100.367945" width="10" height="124" rx="5"></rect>
                            <g id="Group-23-Copy" transform="translate(0.291650, 0.000000)">
                                <path d="M3.33093417,83.5581395 C8.7083501,72.6162606 74.5978387,59.3202695 110.867316,4.30232558 C115.2213,-2.30232558 116.911297,0.571077081 118.300148,4.30232558 C119.689,8.03357408 127.473493,95.7768464 104.320727,123.915005 C81.1679606,152.053163 52.3616207,144.525866 5.30555556,142.22721 C1.0876258,127.284003 -2.04648176,94.5000185 3.33093417,83.5581395 Z" id="Path-47" fill="#E49A69"></path>
                                <ellipse id="Oval" fill="#463835" cx="13.0185185" cy="90.1627907" rx="2.2037037" ry="2.20155039"></ellipse>
                                <ellipse id="Oval-Copy-3" fill="#463835" cx="13.0185185" cy="135.294574" rx="2.2037037" ry="2.20155039"></ellipse>
                            </g>
                        </g>
                        <g id="Group-13" transform="translate(305.000000, 0.000000)">
                            <g id="Path-5" transform="translate(40.000000, 267.000000)">
                                <mask id="mask-16" fill="white">
                                    <use xlink:href="#path-15"></use>
                                </mask>
                                <use id="Mask" fill="#F0CBB3" transform="translate(45.747602, 65.050280) rotate(-21.000000) translate(-45.747602, -65.050280) " xlink:href="#path-15"></use>
                                <path d="M57,23 C53.3854245,26.1104166 51.2197845,28.44375 50.5030801,30 C42.2047853,48.0188941 40.0070177,64.0048074 37.6662433,77.7355791 C35.022218,93.245193 30.5643972,75.3189957 24.292781,23.9569872 L57,23 Z" id="Path-8" fill="#000000" fill-rule="nonzero" opacity="0.0399999991" mask="url(#mask-16)"></path>
                            </g>
                            <path d="M65.2500192,382.223153 C64.7295762,383.039084 68.2589368,386.338752 70.3760202,388.049369 C82.2629319,397.65407 108.605757,401.530019 111.560944,399.55195 C114.04478,397.889383 115.051106,392.851598 114.579921,384.438596 C103.1746,386.594936 96.2977081,386.850836 93.9492465,385.206297 C90.4265542,382.739487 92.1530273,377.902017 90.4265542,377.902017 C88.7000811,377.902017 67.7664053,378.278061 65.2500192,382.223153 Z" id="Path-10-Copy" fill="#424061" fill-rule="nonzero" transform="translate(89.945462, 388.977932) rotate(-43.000000) translate(-89.945462, -388.977932) "></path>
                            <g id="Path-7" fill-rule="nonzero">
                                <use fill="#463835" xlink:href="#path-17"></use>
                                <use fill-opacity="0.05" fill="#000000" xlink:href="#path-17"></use>
                            </g>
                            <g id="Path-6" transform="translate(23.000000, 232.000000)">
                                <mask id="mask-19" fill="white">
                                    <use xlink:href="#path-18"></use>
                                </mask>
                                <use id="Mask" fill="#FDD6BD" xlink:href="#path-18"></use>
                                <path d="M46,21 C46,31.3241533 54.3333333,44.6638566 71,61.0191098 L176.010644,57.5722356 C172.766541,3.12407991 169.979028,-24.0999979 167.648103,-24.0999979 C164.151715,-24.0999979 46,5.51377009 46,21 Z" fill="#463835" fill-rule="nonzero" mask="url(#mask-19)"></path>
                                <path d="M66.7029432,58.9563623 C66.7029432,58.9563623 51.5003422,53.1873236 49.9000684,50.6909316" id="Path-9" stroke="#000000" opacity="0.049999997" stroke-linecap="round" stroke-linejoin="round" fill-rule="nonzero" mask="url(#mask-19)"></path>
                            </g>
                            <path d="M88.8568787,147.526353 C84.1693396,151.426975 80.9092586,153.377286 79.0766357,153.377286 C77.2440129,153.377286 66.5196369,140.44235 46.9035079,114.57248 L39.9847606,131.535557 C60.0500373,164.761025 72.4522728,181.373758 77.1914671,181.373758 C81.9306615,181.373758 91.4090502,174.582506 105.626633,161 L88.8568787,147.526353 Z" id="Path-43" fill="#F0CBB3"></path>
                            <g id="head" transform="translate(96.000000, 0.000000)">
                                <path d="M32.9096509,24.1806705 C26.7573709,27.0888861 18.8943944,32.8109999 12,39.1237184 C11.2582233,39.8029119 9.73314947,40.11913 9.03774608,40.8188219 C8.4511851,41.4090003 7.84983252,43.0288353 7.30326717,43.6311881 C1.98800786,49.4889718 -1.04969382,55.6311881 0.465737987,60.7382777 C3.2038354,69.9658184 7.13392114,76.347348 12.2559952,79.8828665 L21.9232377,120.920454 L50.6391445,110.674378 L43.2177936,79.8828665 C59,52.0552638 62.9455516,36.0993556 55.0544484,32.0151417 C43.2177936,25.8888208 45.7118412,18.1290068 32.9096509,24.1806705 Z" id="Path-11" fill="#FDD6BD"></path>
                                <g id="Group-8" transform="translate(9.000000, 26.000000)" fill-rule="nonzero" stroke="#333333">
                                    <ellipse id="Oval" transform="translate(13.556835, 11.889698) rotate(-35.000000) translate(-13.556835, -11.889698) " cx="13.5568348" cy="11.8896979" rx="6.5" ry="4"></ellipse>
                                    <ellipse id="Oval-Copy" transform="translate(6.973928, 6.469942) rotate(-35.000000) translate(-6.973928, -6.469942) " cx="6.9739284" cy="6.46994189" rx="6" ry="2.5"></ellipse>
                                    <path d="M17.1959361,14.9974943 L33.79309,29.659252" id="Path-10" stroke-linecap="round" stroke-linejoin="round"></path>
                                    <path d="M8.35994889,8.43811881 C9.64630941,8.80341691 10.1608672,9.2679195 9.90362222,9.83162659" id="Path-13"></path>
                                </g>
                                <path d="M31.4871124,24.5647324 C28.9184852,10.2821877 30.6610707,2.21613659 36.714869,0.366578973 C45.7955664,-2.40775745 51.7825602,11.3961674 53.7057749,13.8693087 C55.6289897,16.34245 70,25.452942 70,35.0530991 C70,44.6532562 58.9415501,49.2335124 58.9415501,52.2714525 C58.9415501,55.3093927 69.5186648,68.8530131 61.6122199,74.115213 C53.7057749,79.3774129 36.714869,79.2117831 36.714869,74.115213 C36.714869,69.0186429 45.7118412,64.1659142 45.7118412,59.6196781 C45.7118412,55.073442 39.1452695,56.4093233 39.1452695,53.2367967 C39.1452695,50.0642701 47.0770822,41.8530048 47.0770822,38.7020921 C47.0770822,36.6014837 41.8804256,31.8890304 31.4871124,24.5647324 Z" id="Path-12" fill="#4B2A19" fill-rule="nonzero"></path>
                            </g>
                            <g id="phone" transform="translate(34.500000, 108.000000) scale(-1, 1) rotate(3.000000) translate(-34.500000, -108.000000) translate(23.000000, 85.000000)">
                                <g id="Rectangle">
                                    <mask id="mask-21" fill="white">
                                        <use xlink:href="#path-20"></use>
                                    </mask>
                                    <use id="Mask" fill="#5A5A5A" fill-rule="nonzero" xlink:href="#path-20"></use>
                                    <polygon fill="#333333" fill-rule="nonzero" mask="url(#mask-21)" points="-1 0 7.23734809 0 0.329175796 46.3887294 -1 44"></polygon>
                                    <rect fill="#333333" fill-rule="nonzero" mask="url(#mask-21)" x="6" y="0" width="17" height="2"></rect>
                                </g>
                                <path d="M20.1259477,-2.27373675e-13 L20.1259477,-2.27373675e-13 C21.1686284,-2.27565213e-13 22.0138881,0.845259715 22.0138881,1.88794041 C22.0138881,1.97769255 22.0074879,2.06733045 21.9947363,2.15617211 L15.795661,45.345553 L13.9013432,45.345553 L20.1259477,-2.27373675e-13 Z" id="Rectangle-Copy-51" fill="#333333" fill-rule="nonzero"></path>
                            </g>
                            <path d="M142.39203,93 C140.391825,92.3797428 132.297587,107.100546 123.373286,112.609759 C118.154634,115.831375 116.292229,110.609759 115.126128,112.609759 C110.676773,120.240919 101.920357,131.767529 88.8568787,147.18959 L105.228232,166.169026 C128.366466,226.005223 139.935584,257.34711 139.935584,260.194689 C139.935584,263.042267 157.743226,260.310704 193.358512,252 C199.140948,216.391386 198.253511,189.183291 190.6962,170.375715 C179.360235,142.16435 145.561892,93.9829641 142.39203,93 Z" id="Path-37" fill="#F7F7F7" fill-rule="nonzero"></path>
                            <path d="M105.626633,166.169026 C105.626633,167.053366 99.4305541,172.12161 87.0383959,181.373758 L53.4325125,130.685836 C49.5609799,117.532651 46.3911825,110.389417 43.9231203,109.256134 C40.2210271,107.55621 45.4811377,114.886162 43.9231203,114.886162 C42.365103,114.886162 36.1701263,113.847494 33.0256691,112.244632 C29.8812119,110.64177 25.2430416,104.515291 21.8911307,107 C18.5392197,109.484709 15.2765873,116.23204 19.7886833,122.568989 C24.3007792,128.905938 37.0835876,143.46922 39.9847606,147.350361 C42.8859336,151.231501 71.9926775,215.811348 83.2551022,215.811348 C90.7633853,215.811348 106.19168,206.207566 129.539986,187 C113.597751,172.228344 105.626633,165.284686 105.626633,166.169026 Z" id="Path-44" fill="#FDD6BD"></path>
                            <path d="M142.049745,93 C133.267772,96.8137085 101.140577,163.111007 101.192192,168.073153 C101.243808,173.0353 123.018356,190.277109 124.66812,190.922492 C123.902638,191.567973 121.234209,193.686109 116.662833,197.2769 L120.082354,198.488659 C119.855567,204.007767 120.158457,206.767322 120.991024,206.767322 C122.239875,206.767322 131.170476,188 135.334119,188 C139.497763,188 138.021195,258.049991 139.807734,260.742631 C140.998759,262.537725 158.969638,259.623514 193.720369,252 C201.503672,212.675706 197.95142,179.612926 183.063611,152.811659 C160.731898,112.609759 145.938766,92.8133277 145.075251,92.639207 C144.211736,92.4650862 143.730449,92.2701281 142.049745,93 Z" id="Path-38" fill="#FFFFFF" fill-rule="nonzero"></path>
                            <path d="M144.926246,120.505716 C150.575606,119.832549 155.184344,121.533896 158.752458,125.609759 C162.320572,129.685622 163.864053,133.270055 163.3829,136.363058" id="Path-39" stroke="#000000" opacity="0.049999997" stroke-linecap="round" stroke-linejoin="round" fill-rule="nonzero"></path>
                            <path d="M140,182.373758 C152.84454,174.682776 160.055675,167.891523 161.633405,162" id="Path-40" stroke="#000000" opacity="0.049999997" stroke-linecap="round" stroke-linejoin="round" fill-rule="nonzero"></path>
                            <g id="Group" transform="translate(28.205076, 397.533429) rotate(-23.000000) translate(-28.205076, -397.533429) translate(3.205076, 386.033429)" fill="#2D2B50" fill-rule="nonzero">
                                <path d="M0.874356034,5.58785551 C-1.64203,9.53294788 42.4405463,24.8941701 46.1663,22.4003189 C48.6501358,20.7377514 49.6564614,15.6999665 49.1852771,7.28696412 C37.7799555,9.44330434 30.9030639,9.69920463 28.5546024,8.05466498 C25.0319101,5.58785551 26.7583831,0.750385048 25.0319101,0.750385048 C23.305437,0.750385048 3.39074207,1.64276314 0.874356034,5.58785551 Z" id="Path-10-Copy"></path>
                            </g>
                            <path d="M87.1513342,181.802273 C90.3973861,188.095278 91.6689083,192.534818 90.9659009,195.120891" id="Path-48" stroke="#000000" opacity="0.049999997" stroke-linecap="round" stroke-linejoin="round" fill-rule="nonzero"></path>
                        </g>
                        <rect id="Rectangle" fill="#81534A" fill-rule="nonzero" transform="translate(444.292794, 342.247226) rotate(20.000000) translate(-444.292794, -342.247226) " x="439.292794" y="281.247226" width="10" height="122" rx="5"></rect>
                        <rect id="Rectangle-Copy-7" fill="#81534A" fill-rule="nonzero" transform="translate(560.292794, 332.247226) scale(-1, 1) rotate(20.000000) translate(-560.292794, -332.247226) " x="555.292794" y="261.247226" width="10" height="142" rx="5"></rect>
                        <rect id="Rectangle-Copy-8" fill="#8D635B" fill-rule="nonzero" transform="translate(532.115497, 313.514565) scale(-1, 1) rotate(14.000000) translate(-532.115497, -313.514565) " x="527.115497" y="251.514565" width="10" height="124" rx="5"></rect>
                        <g id="Group-23" transform="translate(452.000000, 152.000000)" fill-rule="nonzero">
                            <path d="M3.33093417,83.5581395 C9.5274039,74.5333923 74.5978387,59.3202695 110.867316,4.30232558 C115.2213,-2.30232558 116.911297,0.571077081 118.300148,4.30232558 C119.689,8.03357408 127.473493,95.7768464 104.320727,123.915005 C81.1679606,152.053163 52.3616207,144.525866 5.30555556,142.22721 C1.0876258,127.284003 -2.86553556,92.5828868 3.33093417,83.5581395 Z" id="Path-47" fill="#E49A69"></path>
                            <ellipse id="Oval" fill="#463835" cx="13.0185185" cy="90.1627907" rx="2.2037037" ry="2.20155039"></ellipse>
                            <ellipse id="Oval-Copy-3" fill="#463835" cx="13.0185185" cy="135.294574" rx="2.2037037" ry="2.20155039"></ellipse>
                        </g>
                    </g>
                </g>
            </g>
        </g>
    </g>
</svg>