<?xml version="1.0" encoding="UTF-8"?>
<svg width="1920px" height="429px" viewBox="0 0 1920 429" version="1.1" xmlns="http://www.w3.org/2000/svg" xmlns:xlink="http://www.w3.org/1999/xlink">
    <!-- Generator: Sketch 52.2 (67145) - http://www.bohemiancoding.com/sketch -->
    <title>底图</title>
    <desc>Created with Sketch.</desc>
    <defs>
        <linearGradient x1="50%" y1="0%" x2="50%" y2="60.8145252%" id="linearGradient-1">
            <stop stop-color="#FFE4DF" offset="0%"></stop>
            <stop stop-color="#F6C9C2" offset="100%"></stop>
        </linearGradient>
        <linearGradient x1="50%" y1="0%" x2="50%" y2="100%" id="linearGradient-2">
            <stop stop-color="#AB908C" stop-opacity="0.528023098" offset="0%"></stop>
            <stop stop-color="#292929" offset="100%"></stop>
        </linearGradient>
    </defs>
    <g id="底图" stroke="none" stroke-width="1" fill="none" fill-rule="evenodd">
        <g id="Group-18" transform="translate(-68.000000, 0.000000)" fill-rule="nonzero">
            <path d="M21,125.89333 C40.7231241,84.1716246 144.549596,179.488218 194,146.160436 C249.802821,108.551355 301.101915,47.0415168 351.307316,47.0415168 C446.002894,47.0415168 503.700041,196.160436 540.666286,196.160436 C577.632531,196.160436 592.110383,112.80938 648.428334,112.80938 C704.746284,112.80938 715.744554,189.09641 774.720177,175.89333 C833.695799,162.69025 872.640563,18.1541144 955.525732,23.4018626 C1038.4109,28.6496108 1076.15964,133.072291 1094.82747,146.160436 C1113.49531,159.24858 1124.31297,116.294371 1173.02683,125.89333 C1221.74069,135.492289 1202.32182,177.269735 1252.7044,177.269735 C1303.08699,177.269735 1379.54411,112.80938 1545.3922,112.80938 C1662.28615,112.80938 1703,175.89333 1778,196.160436 C1816.77129,206.637527 1855.44649,84.8466156 1977.85832,112.80938 C2123.85832,146.160436 2040.21278,509.174901 2050,544 C2109.03877,754.073064 1703.69368,790.010494 1658.21421,732.178739 C1627.89457,693.624235 1082.48983,678.912938 22,688.044846 C-6.65325842,372.479166 -6.98659176,185.095327 21,125.89333 Z" id="Path-14" fill="#FFE4DF"></path>
            <path d="M196.090074,147.919651 C242.154876,147.210688 234.690147,172.370237 302.319962,172.370237 C369.949778,172.370237 427.045233,79 481.49738,79 C535.949527,79 559.094022,172.370237 620.519838,172.370237 C681.945654,172.370237 745.330627,137.919651 777.648956,137.919651 C809.967285,137.919651 818.892337,172.370237 842.06793,172.370237 C865.243522,172.370237 889.134363,137.919651 933.518616,137.919651 C977.902869,137.919651 1008.89954,172.370237 1067.35552,172.370237 C1125.81151,172.370237 1168.79615,137.919651 1194.12526,137.919651 C1219.45437,137.919651 1256.01775,172.370237 1281.20693,172.370237 C1306.3961,172.370237 1333.12029,148.341723 1379.99236,148.341723 C1426.86443,148.341723 1435.24959,187.107576 1485.93114,187.107576 C1536.61268,187.107576 1585.98035,148.341723 1626.16641,148.341723 C1666.35247,148.341723 1670.3874,187.107576 1693.54744,187.107576 C1716.70749,187.107576 1726.94579,148.341723 1790.38951,148.341723 C1818.26785,148.341723 1854.35279,172.461609 1892.24367,172.370237 C1940.58238,172.253671 1927.44969,147.919651 1997.0616,147.919651 C2043.46954,147.919651 2056.26118,265.15302 2035.4365,499.619757 L196.090074,515 C112.406001,377.71429 66.0426433,289.047623 57,249 C48.9849657,213.503402 16.7920578,185.496749 36,180.196923 C89,165.573245 117.246874,199.355133 134,194.174889 C150.173552,189.173855 168.665988,148.341723 196.090074,147.919651 Z" id="Path-15" fill="#7B788E"></path>
            <rect id="Rectangle" fill="url(#linearGradient-1)" x="30" y="259" width="1968" height="247"></rect>
            <g id="Group-30" transform="translate(1535.000000, 451.500000) scale(1, -1) translate(-1535.000000, -451.500000) translate(1409.000000, 365.000000)" fill="#292929" fill-opacity="0.390908062" opacity="0.0700000003">
                <path d="M37.9608532,134 C45.559807,134 49.9344854,138.651425 51.0848884,147.954274 C54.4679415,144.028929 59.6558353,142.066257 66.6485697,142.066257 C77.1376714,142.066257 85.3606976,150.684577 92.6278909,154.156708 C99.8950842,157.628838 103.991554,158.436492 112,156.319277 C107.167182,167.116368 86.1429053,171.419854 54.9942112,172.855062 C23.8455171,174.29027 -1.26097899,164.893476 0.0490388288,152.350121 C1.12307725,142.066257 9.62616146,142.066257 13.8307519,142.066257 C16.6338122,142.066257 19.7334073,144.376303 23.1295374,148.996394 C25.4181275,138.998798 30.3618994,134 37.9608532,134 Z" id="Mask"></path>
            </g>
            <g id="Group-29" transform="translate(398.000000, 388.500000) scale(1, -1) translate(-398.000000, -388.500000) translate(274.000000, 296.000000)" fill="url(#linearGradient-2)" opacity="0.0599999987">
                <path d="M176.018851,82.229154 C180.195712,81.24604 184.540066,80.7272727 189,80.7272727 C221.5848,80.7272727 248,108.418729 248,142.577872 C248,176.737015 221.5848,179.832912 189,179.832912 C163.060728,179.832912 141.031147,177.871034 133.124386,159.838823 C120.404935,162.58742 105.661798,163.200404 89.9208024,163.23381 L90,185 L88,185 L88.071683,163.235172 C39.3915298,163.205051 -2.84217094e-14,157.971655 -2.84217094e-14,101.873122 C-2.84217094e-14,45.6101501 22.0353923,-3.05132224e-13 88.5,-3.12638804e-13 C147.02636,-3.12638804e-13 171.102596,35.365812 176.018849,82.2291387 Z" id="Combined-Shape"></path>
            </g>
            <g id="Group" transform="translate(49.000000, 210.000000)">
                <path d="M1939.65813,94.825031 C1890.97439,94.825031 1898.96541,89.4414158 1827.66913,89.4414158 C1756.37286,89.4414158 1704.77254,100 1647.36834,100 C1589.96415,100 1556.97442,89.4414158 1492.21849,89.4414158 C1427.46255,89.4414158 1360.64125,97.0268659 1326.57083,97.0268659 C1292.5004,97.0268659 1283.09149,89.4414158 1258.65947,89.4414158 C1234.22744,89.4414158 1209.04139,97.0268659 1162.25091,97.0268659 C1115.46042,97.0268659 1082.7833,89.4414158 1021.15821,89.4414158 C959.533119,89.4414158 895.588583,99.625202 868.886288,99.625202 C842.183994,99.625202 822.267918,89.4414158 795.71315,89.4414158 C769.158382,89.4414158 730.981805,94.7320977 681.568627,94.7320977 C632.15545,94.7320977 633.31927,86.196497 579.890093,86.196497 C526.460916,86.196497 474.41685,94.7320977 432.05216,94.7320977 C389.68747,94.7320977 385.433789,86.196497 361.018156,86.196497 C336.602522,86.196497 325.809158,94.7320977 258.925929,94.7320977 C192.042701,94.7320977 63.442271,94.825031 29.6236491,94.825031 C7.07790108,94.825031 -2.59863341,69.0121792 0.594045575,17.3864755 L1939.65813,14 C1972.11396,67.883354 1972.11396,94.825031 1939.65813,94.825031 Z" id="Path-15-Copy-2" fill="#ADB364"></path>
                <path d="M1943.65813,86.825031 C1894.97439,86.825031 1902.96541,81.4414158 1831.66913,81.4414158 C1760.37286,81.4414158 1708.77254,92 1651.36834,92 C1593.96415,92 1560.97442,81.4414158 1496.21849,81.4414158 C1431.46255,81.4414158 1364.64125,89.0268659 1330.57083,89.0268659 C1296.5004,89.0268659 1287.09149,81.4414158 1262.65947,81.4414158 C1238.22744,81.4414158 1213.04139,89.0268659 1166.25091,89.0268659 C1119.46042,89.0268659 1086.7833,81.4414158 1025.15821,81.4414158 C963.533119,81.4414158 899.588583,91.625202 872.886288,91.625202 C846.183994,91.625202 826.267918,81.4414158 799.71315,81.4414158 C773.158382,81.4414158 734.981805,86.7320977 685.568627,86.7320977 C636.15545,86.7320977 637.31927,78.196497 583.890093,78.196497 C530.460916,78.196497 478.41685,86.7320977 436.05216,86.7320977 C393.68747,86.7320977 389.433789,78.196497 365.018156,78.196497 C340.602522,78.196497 329.809158,86.7320977 262.925929,86.7320977 C196.042701,86.7320977 67.442271,86.825031 33.6236491,86.825031 C11.0779011,86.825031 1.40136659,61.0121792 4.59404557,9.38647548 L1943.65813,6 C1976.11396,59.883354 1976.11396,86.825031 1943.65813,86.825031 Z" id="Path-15-Copy-3" fill="#B4B968"></path>
                <path d="M28.3418706,4.03166189 C77.0256118,4.03166189 69.0345937,8.22587377 140.330867,8.22587377 C211.627141,8.22587377 263.227461,4.64905892e-16 320.631657,0 C378.035853,0 411.025582,8.22587377 475.781514,8.22587377 C540.537447,8.22587377 607.35875,2.31627892 641.429173,2.31627892 C675.499596,2.31627892 684.908508,8.22587377 709.340533,8.22587377 C733.772559,8.22587377 758.958609,2.31627892 805.749094,2.31627892 C852.539578,2.31627892 885.216695,8.22587377 946.841788,8.22587377 C1008.46688,8.22587377 1072.41142,0.291993799 1099.11371,0.291993799 C1125.81601,0.291993799 1145.73208,8.22587377 1172.28685,8.22587377 C1198.84162,8.22587377 1237.01819,4.1040634 1286.43137,4.1040634 C1335.84455,4.1040634 1334.68073,10.7538919 1388.10991,10.7538919 C1441.53908,10.7538919 1493.58315,4.1040634 1535.94784,4.1040634 C1578.31253,4.1040634 1582.56621,10.7538919 1606.98184,10.7538919 C1631.39748,10.7538919 1642.19084,4.1040634 1709.07407,4.1040634 C1739.22076,4.1040634 1781.9061,6.08935409 1822.79902,6.0731955 C1872.63086,6.05350476 1919.801,4.03166189 1938.37635,4.03166189 C1960.9221,4.03166189 1970.59863,24.1416744 1967.40595,64.3616993 L28.3418706,67 C-4.11395687,25.0211079 -4.11395687,4.03166189 28.3418706,4.03166189 Z" id="Path-15-Copy" fill="#B4B968"></path>
            </g>
            <g id="house" transform="translate(1329.000000, 126.000000)">
                <rect id="Rectangle-Copy-57" fill="#7B757F" x="40" y="6" width="20" height="40"></rect>
                <rect id="Rectangle" fill="#E6E0D4" x="13" y="36" width="148" height="74"></rect>
                <polygon id="Triangle" fill="#E59D8F" points="86 0 172 40 0 40"></polygon>
                <rect id="Rectangle-Copy-54" fill="#7B757F" x="33" y="58" width="36" height="22"></rect>
                <rect id="Rectangle-Copy-55" fill="#7B757F" x="107" y="58" width="36" height="22"></rect>
                <rect id="Rectangle-Copy-56" fill="#7B757F" x="79" y="69" width="18" height="41"></rect>
            </g>
            <g id="Group-28-Copy-2" transform="translate(274.000000, 0.000000)">
                <path d="M88.5,240 C137.3772,240 177,232.502796 177,149.781022 C177,67.0592477 150.963467,-1.62630326e-18 88.5,0 C26.0365331,1.03722963e-14 0,67.0592477 0,149.781022 C0,232.502796 39.6227996,240 88.5,240 Z" id="Oval" fill="#E59D8F"></path>
                <polygon id="Rectangle" fill="#4E4B5C" points="88.4492111 71.4666667 89.5037292 71.4666667 90 272 88 272"></polygon>
                <path d="M88.716825,162.133333 C110.43536,165.140079 125.902173,157.576888 135.117263,139.44376" id="Path-18" stroke="#4E4B5C" stroke-linecap="round" stroke-linejoin="round"></path>
                <path d="M57.9395243,102.944898 C64.0459392,116.888762 74.2720591,122.219669 88.6178842,118.93762" id="Path-19" stroke="#4E4B5C" stroke-linecap="round" stroke-linejoin="round"></path>
            </g>
            <g id="Group-28" transform="translate(404.000000, 118.000000)">
                <path d="M59,145.83871 C91.5848002,145.83871 118,141.282949 118,91.016129 C118,40.749309 91.5848002,-1.27897692e-13 59,-1.27897692e-13 C26.4151998,-1.27897692e-13 2.84217094e-14,40.749309 2.84217094e-14,91.016129 C2.84217094e-14,141.282949 26.4151998,145.83871 59,145.83871 Z" id="Oval" fill="#D3C3B7"></path>
                <polygon id="Rectangle" fill="#4E4B5C" points="58.4492111 62.8064516 59.5037292 62.8064516 60 165 58 165"></polygon>
            </g>
            <g id="Group-19" transform="translate(1579.000000, 177.000000)">
                <rect id="Rectangle-Copy-59" fill="#7B757F" x="8" y="3" width="8" height="18"></rect>
                <rect id="Rectangle" fill="#E6E0D4" x="2" y="13" width="42" height="33"></rect>
                <polygon id="Triangle" fill="#B7D3BC" points="23 0 46 14 0 14"></polygon>
                <rect id="Rectangle" fill="#7B757F" x="24" y="21" width="16" height="10"></rect>
                <rect id="Rectangle-Copy-58" fill="#7B757F" x="10" y="28" width="8" height="18"></rect>
            </g>
            <g id="Group-19-Copy-3" transform="translate(1634.000000, 177.000000)">
                <rect id="Rectangle-Copy-59" fill="#7B757F" x="8" y="3" width="8" height="18"></rect>
                <rect id="Rectangle" fill="#E6E0D4" x="2" y="13" width="42" height="33"></rect>
                <polygon id="Triangle" fill="#D3C3B7" points="23 0 46 14 0 14"></polygon>
                <rect id="Rectangle-Copy-58" fill="#7B757F" x="17" y="27" width="12" height="19"></rect>
            </g>
        </g>
    </g>
</svg>